# xmcd
# 
# Track frame offsets:
#     150
#     18940
#     33255
#     50055
#     65515
#     91570
#     108322
#     124757
#     148630
#     163270
# 
# Disc length: 2506
# 
# Revision: 6
# Processed by: cddbd v1.5.2PL0 Copyright (c) Steve Scherf et al.
# Submitted via: fre:ac v1.0.17
# 
DISCID=8009c80a
DTITLE=Lucky Peterson - Triple Play
DYEAR=1990
DGENRE=Blues
TTITLE0=Let The Chips Fall Where They May
TTITLE1=Your Lies
TTITLE2=Six O'clock Blues
TTITLE3=Repo Man
TTITLE4=Found A Love
TTITLE5=Jammin' In The Jungle
TTITLE6=Locked Out Of Love
TTITLE7=I'm Free
TTITLE8=Cloud Up On Me
TTITLE9=Funky Ray
EXTD=YEAR: 1990
EXTT0=
EXTT1=
EXTT2=
EXTT3=
EXTT4=
EXTT5=
EXTT6=
EXTT7=
EXTT8=
EXTT9=
PLAYORDER=
